<svg width="272" height="259" viewBox="0 0 272 259" fill="none" xmlns="http://www.w3.org/2000/svg">
<path opacity="0.2" d="M56.9294 113.215L260.043 91.3488L261.762 107.308C261.913 108.719 261.167 110.168 259.688 111.336C258.208 112.505 256.116 113.297 253.871 113.539L67.6832 133.582C65.4386 133.824 63.2257 133.495 61.5311 132.668C59.8366 131.842 58.7993 130.584 58.6474 129.174L56.9294 113.215ZM242.418 7.14541L56.2297 27.189C53.9851 27.4307 51.8929 28.2229 50.4131 29.3913C48.9334 30.5598 48.1874 32.0089 48.3393 33.4198L50.0573 49.3787L253.171 27.513L251.453 11.554C251.301 10.1431 250.264 8.88604 248.57 8.05927C246.875 7.2325 244.662 6.90378 242.418 7.14541Z" fill="#212121"/>
<path d="M241.842 1.82222L55.6542 21.8658C51.1651 22.3491 46.9805 23.9335 44.0211 26.2705C41.0616 28.6075 39.5696 31.5056 39.8734 34.3273L50.1815 130.081C50.4853 132.903 52.5599 135.417 55.949 137.071C59.338 138.724 63.7639 139.382 68.253 138.898L254.441 118.855C258.93 118.371 263.115 116.787 266.074 114.45C269.034 112.113 270.526 109.215 270.222 106.393L259.914 10.6394C259.61 7.81766 257.535 5.30349 254.146 3.64995C250.757 1.99641 246.331 1.33896 241.842 1.82222ZM59.0903 53.7838L143.721 44.673L149.448 97.8696L64.817 106.98L59.0903 53.7838ZM159.502 32.2116L158.357 21.5723L192.209 17.928L193.354 28.5673L159.502 32.2116ZM142.576 34.0337L108.723 37.678L107.578 27.0387L141.43 23.3944L142.576 34.0337ZM150.593 108.509L151.739 119.148L117.886 122.792L116.741 112.153L150.593 108.509ZM167.519 106.687L201.372 103.042L202.517 113.682L168.665 117.326L167.519 106.687ZM166.374 96.0474L160.647 42.8509L245.278 33.7401L251.005 86.9367L166.374 96.0474ZM244.133 23.1008L210.28 26.7451L209.135 16.1058L242.987 12.4615L244.133 23.1008ZM90.6519 28.8609L91.7973 39.5002L57.9449 43.1445L56.7996 32.5051L90.6519 28.8609ZM65.9623 117.62L99.8147 113.975L100.96 124.615L67.1077 128.259L65.9623 117.62ZM253.296 108.215L219.443 111.86L218.298 101.22L252.15 97.576L253.296 108.215Z" fill="#FF777F"/>
<path opacity="0.2" d="M15.323 189.015L215.522 229.681L212.327 245.41C212.045 246.801 210.895 247.956 209.131 248.622C207.367 249.287 205.133 249.409 202.92 248.959L19.4044 211.682C17.1921 211.233 15.1826 210.249 13.818 208.948C12.4533 207.647 11.8454 206.135 12.1279 204.745L15.323 189.015ZM224.222 144.093L40.7056 106.816C38.4933 106.367 36.2594 106.488 34.4953 107.154C32.7312 107.819 31.5814 108.974 31.299 110.365L28.1038 126.095L228.303 166.761L231.498 151.031C231.781 149.64 231.173 148.128 229.808 146.827C228.443 145.526 226.434 144.543 224.222 144.093Z" fill="#212121"/>
<path d="M223.631 140.258L40.1147 102.981C35.69 102.082 31.2221 102.325 27.6939 103.656C24.1657 104.987 21.8662 107.297 21.3013 110.078L2.13019 204.458C1.56524 207.239 2.78113 210.264 5.51038 212.866C8.23962 215.468 12.2587 217.435 16.6833 218.333L200.199 255.611C204.624 256.509 209.092 256.267 212.62 254.935C216.148 253.604 218.448 251.294 219.013 248.513L238.184 154.133C238.749 151.352 237.533 148.328 234.804 145.725C232.074 143.123 228.055 141.157 223.631 140.258ZM33.7243 134.441L117.141 151.385L106.49 203.818L23.0737 186.874L33.7243 134.441ZM135.954 144.287L138.084 133.8L171.451 140.578L169.321 151.065L135.954 144.287ZM119.271 140.898L85.9042 134.12L88.0344 123.634L121.401 130.411L119.271 140.898ZM104.36 214.304L102.23 224.791L68.8633 218.013L70.9934 207.527L104.36 214.304ZM121.043 217.693L154.41 224.471L152.28 234.958L118.913 228.18L121.043 217.693ZM123.173 207.207L133.824 154.773L217.24 171.718L206.59 224.151L123.173 207.207ZM219.37 161.231L186.004 154.453L188.134 143.967L221.501 150.744L219.37 161.231ZM71.3511 120.245L69.221 130.732L35.8544 123.954L37.9845 113.467L71.3511 120.245ZM20.9436 197.36L54.3101 204.138L52.18 214.625L18.8135 207.847L20.9436 197.36ZM202.329 245.124L168.963 238.346L171.093 227.86L204.46 234.637L202.329 245.124Z" fill="#FF777F"/>
</svg>
